<svg xmlns="http://www.w3.org/2000/svg" viewBox="0 0 645.12 461.1"><defs><style>.cls-1{fill:#fff;}</style></defs><g id="Layer_2" data-name="Layer 2"><g id="Layer_1-2" data-name="Layer 1"><path class="cls-1" d="M149.32,338.32,0,396.92V0L149.32,60.48Z"/><path d="M20.05,73.07h38.5v93.37H102V73.07h38.51V323.85H102V224.31H58.55v99.54H20.05Z"/><path class="cls-1" d="M205.87,73.07h46.56l44.33,250.78H256L239.45,201.93c-3.59-23.92-7.17-54.4-10.75-79.48h-.9c-3.13,25.47-6.71,55.56-10.29,79.48L200.94,323.85h-39.4ZM193.33,219.29h71.19v51.32H193.33Z"/><path class="cls-1" d="M315.57,73.07H355L387.21,185l13.88,56.32h.9c-1.79-27-4.93-64.81-4.93-95.68V73.07h36.72V323.85H394.37L362.14,211.58l-13.88-56h-.9c1.79,28.55,4.93,64.82,4.93,95.68v72.54H315.57Z"/><path class="cls-1" d="M464.23,292.6l21.94-45.53c10.3,14.28,23.28,24.31,34,24.31,11.64,0,16.56-6.56,16.56-17.75,0-12-7.39-15.82-19.7-24.31l-18.13-13.11c-15.67-10.81-29.33-33.57-29.33-69.84,0-42.82,22.39-77.93,54.18-77.93,16.56,0,34.92,10.8,48.36,33.56l-19.26,41.67c-9.85-12-18.36-18.13-29.1-18.13-9.4,0-15.23,5.79-15.23,17,0,12,8.29,16.2,21.5,25.07l17.68,12c18.14,12.35,28.43,33.95,28.43,68.68,0,42.44-20.59,80.25-56.86,80.25C500.94,328.48,479.9,316.9,464.23,292.6Z"/><path class="cls-1" d="M606.62,73.07h38.5V323.85h-38.5Z"/><path class="cls-1" d="M224.84,427.84H213.79V423.9h26.75v3.94h-11v32.59h-4.65Z"/><path class="cls-1" d="M247.62,423.9h11.44c7.44,0,12.78,2.67,12.78,10.28,0,7.3-5.34,10.81-12.78,10.81h-6.79v15.44h-4.65Zm10.78,17.32c5.68,0,8.81-2.3,8.81-7s-3.13-6.51-8.81-6.51h-6.13v13.55Zm-.25,2.5,3.64-2.41,11.14,19.12h-5.27Z"/><path class="cls-1" d="M287.14,423.9h5.24l12.36,36.53h-4.93L293.44,440c-1.31-4.09-2.48-8.09-3.65-12.31h-.22c-1.13,4.24-2.31,8.22-3.62,12.31l-6.44,20.4h-4.73Zm-5.86,21.69H298.1v3.71H281.28Z"/><path class="cls-1" d="M304.7,423.9h4.92l5.89,19.75c1.29,4.29,2.17,7.78,3.52,12.06h.22c1.35-4.28,2.26-7.77,3.52-12.06l5.85-19.75h4.73l-11.6,36.53h-5.38Z"/><path class="cls-1" d="M338.68,423.9h21.05v3.94h-16.4v11.44h13.84v3.94H343.33v13.27h17v3.94H338.68Z"/><path class="cls-1" d="M368.57,423.9h4.65v32.59h15.94v3.94H368.57Z"/><path class="cls-1" d="M392.3,455.67l2.78-3.19A14.26,14.26,0,0,0,405.16,457c4.79,0,7.64-2.39,7.64-5.94,0-3.73-2.65-4.92-6.1-6.42l-5.24-2.32c-3.41-1.45-7.4-4-7.4-9.4,0-5.58,4.86-9.7,11.5-9.7a15.06,15.06,0,0,1,10.75,4.53l-2.46,3a11.67,11.67,0,0,0-8.29-3.43c-4.1,0-6.81,2.07-6.81,5.33,0,3.52,3.18,4.84,6.05,6.05L410,441c4.23,1.82,7.53,4.34,7.53,9.77,0,5.77-4.77,10.38-12.45,10.38A17.52,17.52,0,0,1,392.3,455.67Z"/><rect class="cls-1" x="16.81" y="443.57" width="189.93" height="3.55"/><rect class="cls-1" x="438.38" y="443.57" width="189.93" height="3.55"/></g></g></svg>